<svg xmlns="http://www.w3.org/2000/svg" width="171.721" height="22.781" viewBox="0 0 171.721 22.781">
  <g id="그룹_21844" data-name="그룹 21844" transform="translate(-624.743 -904.191)">
    <g id="그룹_21841" data-name="그룹 21841" transform="translate(670.525 906.87)">
      <path id="패스_553" data-name="패스 553" d="M721.81,928.671l7.3-17.741h1.849l7.272,17.741h-2.4l-2.1-5.2h-7.447l-2.074,5.2Zm8.221-15.142-3.3,8.2h6.5Z" transform="translate(-721.81 -910.43)" fill="#fff"/>
      <path id="패스_554" data-name="패스 554" d="M767.7,922.7a5.653,5.653,0,0,0-2.911.849A4.335,4.335,0,0,0,763,925.776v8.046h-2.2V920.778h2.049V923.8a6.646,6.646,0,0,1,1.774-2.237,3.677,3.677,0,0,1,2.349-.887h.424a1.569,1.569,0,0,1,.3.025Z" transform="translate(-742.412 -915.58)" fill="#fff"/>
      <path id="패스_555" data-name="패스 555" d="M785.493,928.414q-.2.1-.525.237t-.737.275a6.454,6.454,0,0,1-.9.225,5.739,5.739,0,0,1-1.012.087,3.335,3.335,0,0,1-2.074-.662,2.417,2.417,0,0,1-.874-2.062v-8.77H777.6V916.02h1.774v-4.348h2.2v4.348h2.924v1.724H781.57v8.1a1.361,1.361,0,0,0,.475,1.05,1.6,1.6,0,0,0,1,.325,3.2,3.2,0,0,0,1.187-.213,5.073,5.073,0,0,0,.737-.337Z" transform="translate(-751.285 -910.822)" fill="#fff"/>
      <path id="패스_556" data-name="패스 556" d="M798.365,912.619V909.87h2.2v2.749Zm0,15.492V915.068h2.2v13.044Z" transform="translate(-762.258 -909.87)" fill="#fff"/>
      <path id="패스_557" data-name="패스 557" d="M811.185,928.671V910.93H822.9v2h-9.471v5.922h7.971v1.874h-7.971v7.946Z" transform="translate(-769.031 -910.43)" fill="#fff"/>
      <path id="패스_558" data-name="패스 558" d="M848.015,922.7a5.653,5.653,0,0,0-2.911.849,4.335,4.335,0,0,0-1.787,2.224v8.046h-2.2V920.778h2.049V923.8a6.647,6.647,0,0,1,1.774-2.237,3.677,3.677,0,0,1,2.348-.887h.424a1.563,1.563,0,0,1,.3.025Z" transform="translate(-784.846 -915.58)" fill="#fff"/>
      <path id="패스_559" data-name="패스 559" d="M860.3,912.619V909.87h2.2v2.749Zm0,15.492V915.068h2.2v13.044Z" transform="translate(-794.979 -909.87)" fill="#fff"/>
      <path id="패스_560" data-name="패스 560" d="M877.169,933.932a6.643,6.643,0,0,1-2.7-.537,6.372,6.372,0,0,1-2.1-1.462,6.658,6.658,0,0,1-1.362-2.162,7.057,7.057,0,0,1-.487-2.611,6.964,6.964,0,0,1,.487-2.6,6.6,6.6,0,0,1,1.374-2.149,6.527,6.527,0,0,1,2.111-1.462,6.647,6.647,0,0,1,2.7-.537,6.341,6.341,0,0,1,6.059,4.135,7,7,0,0,1,.462,2.512q0,.275-.012.5a2.656,2.656,0,0,1-.038.349h-10.82a5.054,5.054,0,0,0,.45,1.774,4.562,4.562,0,0,0,.974,1.374,4.511,4.511,0,0,0,1.362.9,4.069,4.069,0,0,0,1.612.325,4.275,4.275,0,0,0,1.174-.163,5.061,5.061,0,0,0,1.074-.437,3.713,3.713,0,0,0,.887-.674,2.763,2.763,0,0,0,.588-.9l1.9.525a4.8,4.8,0,0,1-.887,1.324,5.875,5.875,0,0,1-1.3,1.037,6.673,6.673,0,0,1-1.637.687A6.973,6.973,0,0,1,877.169,933.932Zm4.473-7.646a4.706,4.706,0,0,0-.462-1.712,4.6,4.6,0,0,0-.974-1.337,4.468,4.468,0,0,0-4.66-.862,4.248,4.248,0,0,0-1.362.875,4.425,4.425,0,0,0-.949,1.337,4.9,4.9,0,0,0-.438,1.7Z" transform="translate(-800.381 -915.44)" fill="#fff"/>
      <path id="패스_561" data-name="패스 561" d="M914.9,933.682h-2.2v-7.3a5.615,5.615,0,0,0-.637-3.048,2.174,2.174,0,0,0-1.937-.949,3.693,3.693,0,0,0-1.349.262,5.341,5.341,0,0,0-1.275.712,4.958,4.958,0,0,0-1.049,1.074,4.59,4.59,0,0,0-.674,1.374v7.871h-2.2V920.638h2v2.8a5.735,5.735,0,0,1,2.236-2.2,6.374,6.374,0,0,1,3.186-.825,3.852,3.852,0,0,1,1.874.413,3.179,3.179,0,0,1,1.2,1.149,5.13,5.13,0,0,1,.637,1.737,11.807,11.807,0,0,1,.187,2.174Z" transform="translate(-817.847 -915.44)" fill="#fff"/>
      <path id="패스_562" data-name="패스 562" d="M939.1,928.361a5.723,5.723,0,0,1-2.5-.549,6.193,6.193,0,0,1-1.974-1.474,6.8,6.8,0,0,1-1.287-2.149,7.219,7.219,0,0,1-.462-2.574,7.781,7.781,0,0,1,.437-2.612,6.791,6.791,0,0,1,1.224-2.161,5.83,5.83,0,0,1,1.874-1.462,5.312,5.312,0,0,1,2.387-.537,4.951,4.951,0,0,1,2.811.825,6.49,6.49,0,0,1,1.962,2v-7.8h2.2v15.543q0,.775.7.8v1.9c-.183.034-.346.058-.487.075a3.383,3.383,0,0,1-.387.025,1.772,1.772,0,0,1-1.2-.387,1.274,1.274,0,0,1-.475-.937l-.05-1.225a5.616,5.616,0,0,1-4.773,2.7Zm.525-1.9a3.7,3.7,0,0,0,1.237-.225,4.82,4.82,0,0,0,1.2-.625,4.506,4.506,0,0,0,.975-.937,2.8,2.8,0,0,0,.537-1.137V919.79a4.141,4.141,0,0,0-.675-1.187,5.314,5.314,0,0,0-1.012-.974,4.942,4.942,0,0,0-1.2-.65,3.6,3.6,0,0,0-1.262-.237,3.737,3.737,0,0,0-1.762.412,4.312,4.312,0,0,0-1.349,1.1,4.981,4.981,0,0,0-.862,1.574,5.62,5.62,0,0,0-.3,1.812,5.023,5.023,0,0,0,.35,1.862,4.872,4.872,0,0,0,.949,1.537,4.582,4.582,0,0,0,1.412,1.037A4.033,4.033,0,0,0,939.625,926.462Z" transform="translate(-833.327 -909.87)" fill="#fff"/>
      <path id="패스_563" data-name="패스 563" d="M971.448,933.932a10.115,10.115,0,0,1-3.1-.487,7.638,7.638,0,0,1-2.623-1.412l.949-1.474a9.237,9.237,0,0,0,2.3,1.312,6.759,6.759,0,0,0,2.424.437,4,4,0,0,0,2.261-.562,1.8,1.8,0,0,0,.837-1.587,1.428,1.428,0,0,0-.224-.812,1.9,1.9,0,0,0-.675-.588,5.563,5.563,0,0,0-1.149-.449q-.7-.2-1.624-.425-1.174-.3-2.024-.575a5.477,5.477,0,0,1-1.4-.65,2.271,2.271,0,0,1-.8-.9,3.007,3.007,0,0,1-.25-1.3,3.777,3.777,0,0,1,.387-1.737,3.665,3.665,0,0,1,1.062-1.274,4.788,4.788,0,0,1,1.587-.775,7.068,7.068,0,0,1,1.962-.263,7.816,7.816,0,0,1,2.749.475,6.773,6.773,0,0,1,2.149,1.249l-1,1.324a5.624,5.624,0,0,0-1.849-1.087,6.262,6.262,0,0,0-2.1-.362,3.833,3.833,0,0,0-2.036.512,1.775,1.775,0,0,0-.837,1.637,1.553,1.553,0,0,0,.162.75,1.411,1.411,0,0,0,.537.525,4.219,4.219,0,0,0,.962.4q.586.175,1.412.375,1.3.3,2.261.612a6.521,6.521,0,0,1,1.6.738,2.844,2.844,0,0,1,.95,1,2.9,2.9,0,0,1,.312,1.4,3.463,3.463,0,0,1-1.4,2.9A6.043,6.043,0,0,1,971.448,933.932Z" transform="translate(-850.682 -915.44)" fill="#fff"/>
    </g>
    <g id="그룹_21843" data-name="그룹 21843" transform="translate(624.743 904.192)">
      <path id="패스_564" data-name="패스 564" d="M661.19,949.285h4.2l-1.467-2.863h-4.23Z" transform="translate(-643.208 -926.504)" fill="#3db2e7"/>
      <path id="패스_565" data-name="패스 565" d="M624.743,927.908h4.2l7.051-13.469,4.118,7.863h4.263l-8.381-16.34Z" transform="translate(-624.743 -905.127)" fill="#fff"/>
      <g id="그룹_21842" data-name="그룹 21842" transform="translate(25.596 0.005)">
        <path id="패스_566" data-name="패스 566" d="M686.424,904.2l1.678,3.451h-5.575v6.432h7.419v3.505h-7.419v9.332h-3.516V904.2Z" transform="translate(-679.012 -904.203)" fill="#fff"/>
      </g>
      <path id="패스_567" data-name="패스 567" d="M705.294,907.648H702.64l-1.632-3.457h4.286Z" transform="translate(-665.037 -904.192)" fill="#3db2e7"/>
    </g>
  </g>
</svg>
